<svg width="90" height="37" viewBox="0 0 90 37" fill="none" xmlns="http://www.w3.org/2000/svg">
<path d="M40.8963 36.615C38.1454 36.615 35.7986 36.0132 33.8558 34.8097C31.9302 33.6062 30.4516 31.9987 29.42 29.9871C28.4056 27.9756 27.8984 25.7577 27.8984 23.3335C27.8984 20.9093 28.4056 18.6828 29.42 16.654C30.4516 14.6253 31.9302 13.0092 33.8558 11.8057C35.7986 10.585 38.1454 9.97461 40.8963 9.97461C43.6299 9.97461 45.9682 10.585 47.9109 11.8057C49.8537 13.0092 51.3323 14.6253 52.3467 16.654C53.3783 18.6828 53.8941 20.9093 53.8941 23.3335C53.8941 25.7577 53.3783 27.9756 52.3467 29.9871C51.3323 31.9987 49.8537 33.6062 47.9109 34.8097C45.9682 36.0132 43.6299 36.615 40.8963 36.615ZM40.8963 31.7666C43.1657 31.7666 44.9108 31.0015 46.1315 29.4713C47.3694 27.924 47.9883 25.878 47.9883 23.3335C47.9883 20.7545 47.3694 18.6914 46.1315 17.144C44.9108 15.5967 43.1657 14.823 40.8963 14.823C38.6268 14.823 36.8731 15.5967 35.6352 17.144C34.3973 18.6914 33.7784 20.7545 33.7784 23.3335C33.7784 25.878 34.3973 27.924 35.6352 29.4713C36.8731 31.0015 38.6268 31.7666 40.8963 31.7666Z" fill="white"/>
<path d="M58.5098 36.0992C57.9575 36.0992 57.5098 35.6515 57.5098 35.0992V11.4904C57.5098 10.9381 57.9575 10.4904 58.5098 10.4904H61.8021C62.3209 10.4904 62.7536 10.8872 62.7983 11.4041L63.0029 13.7656C63.8969 12.7169 64.9371 11.8228 66.1234 11.0835C67.3097 10.3443 68.5906 9.97461 69.966 9.97461C70.0724 9.97461 70.177 9.97747 70.28 9.98318C70.772 10.0105 71.0978 10.4658 71.0588 10.9571L70.7409 14.967C70.6999 15.4832 70.1994 15.8302 69.6823 15.803C69.3557 15.7686 69.0204 15.7514 68.6765 15.7514C67.5074 15.7514 66.4329 16.0179 65.4529 16.5509C64.4729 17.0839 63.7852 17.7028 63.3897 18.4077V35.0992C63.3897 35.6515 62.942 36.0992 62.3897 36.0992H58.5098Z" fill="white"/>
<path d="M85.0233 36.6143C83.4071 36.6143 82.1005 36.2962 81.1033 35.6601C80.1061 35.024 79.3754 34.2159 78.9112 33.2359C78.447 32.2387 78.2149 31.1985 78.2149 30.1154V16.1576C78.2149 15.6053 77.7672 15.1576 77.2149 15.1576H75.4115C74.8157 15.1576 74.3521 14.6399 74.4176 14.0478L74.7123 11.3799C74.7683 10.8732 75.1965 10.4897 75.7063 10.4897H77.2149C77.7672 10.4897 78.2149 10.042 78.2149 9.48972V5.51192C78.2149 4.99936 78.6024 4.56978 79.1123 4.5172L82.8633 4.13032C83.4531 4.0695 83.9659 4.53218 83.9659 5.12505V9.48972C83.9659 10.042 84.4136 10.4897 84.9659 10.4897H89.0006C89.5529 10.4897 90.0006 10.9374 90.0006 11.4897V14.1576C90.0006 14.7099 89.5529 15.1576 89.0006 15.1576H84.9659C84.4136 15.1576 83.9659 15.6053 83.9659 16.1576V27.4075C83.9659 28.8345 84.0519 29.8661 84.2238 30.5022C84.3957 31.1212 84.7912 31.5166 85.4101 31.6885C86.0291 31.8433 87.0262 31.9206 88.4017 31.9206H88.8392C89.4326 31.9206 89.8954 32.4343 89.8338 33.0245L89.5526 35.7181C89.4994 36.2275 89.0701 36.6143 88.558 36.6143H85.0233Z" fill="white"/>
<path d="M27.2186 35.0925V31.7158C27.2186 31.1635 26.7709 30.7158 26.2186 30.7158H3.15566L0.883993 34.5864C0.492733 35.253 0.973449 36.0925 1.74643 36.0925H26.2186C26.7709 36.0925 27.2186 35.6448 27.2186 35.0925Z" fill="#F6566B"/>
<path d="M2.04868 0.999758L2.04868 4.37646C2.04868 4.92875 2.49639 5.37646 3.04868 5.37646L24.333 5.37646L26.6032 1.50565C26.9941 0.839006 26.5134 -0.000240888 25.7406 -0.000240955L3.04868 -0.000241032C2.49639 -0.00024108 2.04868 0.447473 2.04868 0.999758Z" fill="#B9F70A"/>
<path d="M11.0213 17.3267L9.31792 30.716H3.15625L11.0213 17.3267Z" fill="url(#paint0_linear_1808_3696)"/>
<path d="M16.4464 18.6474L18.1528 5.37506L24.3145 5.37506L16.4464 18.6474Z" fill="url(#paint1_linear_1808_3696)"/>
<defs>
<linearGradient id="paint0_linear_1808_3696" x1="7.08877" y1="17.3267" x2="7.08877" y2="30.716" gradientUnits="userSpaceOnUse">
<stop stop-color="#F6566B"/>
<stop offset="1" stop-color="#DC3B50"/>
</linearGradient>
<linearGradient id="paint1_linear_1808_3696" x1="20.3804" y1="18.6475" x2="20.3804" y2="5.37506" gradientUnits="userSpaceOnUse">
<stop stop-color="#B9F70A"/>
<stop offset="1" stop-color="#8BAF26"/>
</linearGradient>
</defs>
</svg>
