<svg width="238" height="174" viewBox="0 0 238 174" fill="none" xmlns="http://www.w3.org/2000/svg">
<g filter="url(#filter0_d_1305_3771)">
<rect x="12" y="12" width="214" height="67" rx="16" fill="#1D1F22"/>
<rect x="11.1135" y="11.1135" width="215.773" height="68.7731" rx="16.8865" stroke="#B6F20B" stroke-width="1.77308"/>
</g>
<path opacity="0.2" d="M81.8972 55.9874V33.4209H83.3428V55.9874H81.8972ZM85.7317 40.8696C85.6612 40.1585 85.3585 39.6061 84.8237 39.2124C84.289 38.8186 83.5632 38.6218 82.6464 38.6218C82.0235 38.6218 81.4975 38.7099 81.0686 38.8862C80.6396 39.0567 80.3105 39.2947 80.0813 39.6002C79.858 39.9058 79.7463 40.2526 79.7463 40.6404C79.7345 40.9636 79.8021 41.2457 79.949 41.4867C80.1018 41.7276 80.3105 41.9362 80.5749 42.1125C80.8394 42.2829 81.1449 42.4328 81.4917 42.5621C81.8384 42.6855 82.2086 42.7913 82.6024 42.8794L84.2243 43.2673C85.0118 43.4436 85.7346 43.6787 86.3928 43.9725C87.051 44.2663 87.621 44.6277 88.1029 45.0567C88.5848 45.4857 88.958 45.9911 89.2224 46.5729C89.4928 47.1547 89.6309 47.8217 89.6367 48.5739C89.6309 49.6787 89.3488 50.6366 88.7905 51.4476C88.2381 52.2527 87.4389 52.8786 86.3928 53.3252C85.3526 53.766 84.098 53.9863 82.6288 53.9863C81.1714 53.9863 79.902 53.763 78.8207 53.3164C77.7453 52.8698 76.9049 52.2087 76.2996 51.333C75.7002 50.4515 75.3858 49.3614 75.3564 48.0627H79.0499C79.091 48.668 79.2644 49.1734 79.57 49.5788C79.8815 49.9785 80.2958 50.2811 80.8129 50.4868C81.3359 50.6866 81.9265 50.7865 82.5847 50.7865C83.2312 50.7865 83.7924 50.6925 84.2684 50.5044C84.7503 50.3164 85.1235 50.0549 85.3879 49.7199C85.6524 49.3849 85.7846 49 85.7846 48.5651C85.7846 48.1596 85.6641 47.8188 85.4232 47.5426C85.1881 47.2664 84.8414 47.0313 84.383 46.8374C83.9305 46.6434 83.3751 46.4671 82.717 46.3085L80.7512 45.8148C79.2292 45.4446 78.0274 44.8657 77.1459 44.0783C76.2644 43.2908 75.8266 42.2301 75.8324 40.8961C75.8266 39.803 76.1175 38.848 76.7051 38.0312C77.2987 37.2143 78.1126 36.5767 79.1469 36.1183C80.1812 35.6599 81.3565 35.4307 82.6729 35.4307C84.0128 35.4307 85.1822 35.6599 86.1813 36.1183C87.1862 36.5767 87.9678 37.2143 88.5261 38.0312C89.0843 38.848 89.3723 39.7942 89.3899 40.8696H85.7317Z" fill="white"/>
<path d="M95.4633 53.7307V50.9804L101.889 45.0303C102.436 44.5014 102.894 44.0254 103.265 43.6023C103.641 43.1791 103.926 42.7648 104.12 42.3593C104.314 41.948 104.411 41.5043 104.411 41.0283C104.411 40.4994 104.29 40.0439 104.049 39.662C103.808 39.2741 103.479 38.9773 103.062 38.7716C102.645 38.5601 102.172 38.4543 101.643 38.4543C101.09 38.4543 100.608 38.566 100.197 38.7893C99.7856 39.0126 99.4682 39.3329 99.2449 39.7501C99.0216 40.1673 98.91 40.6639 98.91 41.2398H95.287C95.287 40.0586 95.5544 39.0331 96.0892 38.1634C96.6239 37.2937 97.3732 36.6208 98.337 36.1448C99.3008 35.6687 100.411 35.4307 101.669 35.4307C102.962 35.4307 104.087 35.6599 105.045 36.1183C106.009 36.5708 106.758 37.1996 107.293 38.0047C107.828 38.8098 108.095 39.7325 108.095 40.7726C108.095 41.4543 107.96 42.1272 107.69 42.7913C107.425 43.4553 106.952 44.1929 106.27 45.0038C105.589 45.809 104.628 46.7757 103.388 47.904L100.752 50.4868V50.6102H108.333V53.7307H95.4633ZM118.177 54.1274C116.661 54.1215 115.357 53.7483 114.264 53.0079C113.176 52.2674 112.339 51.1949 111.751 49.7904C111.169 48.3859 110.881 46.6963 110.887 44.7218C110.887 42.7531 111.178 41.0753 111.76 39.6884C112.348 38.3015 113.185 37.2466 114.272 36.5238C115.365 35.7951 116.667 35.4307 118.177 35.4307C119.688 35.4307 120.986 35.7951 122.074 36.5238C123.167 37.2525 124.007 38.3103 124.595 39.6972C125.182 41.0782 125.473 42.7531 125.467 44.7218C125.467 46.7022 125.174 48.3947 124.586 49.7992C124.004 51.2037 123.17 52.2762 122.082 53.0167C120.995 53.7572 119.694 54.1274 118.177 54.1274ZM118.177 50.9628C119.212 50.9628 120.037 50.4427 120.654 49.4025C121.271 48.3624 121.577 46.8021 121.571 44.7218C121.571 43.3525 121.43 42.2124 121.148 41.3015C120.872 40.3907 120.478 39.706 119.967 39.2476C119.461 38.7893 118.865 38.5601 118.177 38.5601C117.149 38.5601 116.326 39.0743 115.709 40.1027C115.092 41.1311 114.781 42.6708 114.775 44.7218C114.775 46.1087 114.913 47.2664 115.189 48.1949C115.471 49.1175 115.868 49.811 116.379 50.2752C116.89 50.7336 117.49 50.9628 118.177 50.9628ZM135.267 54.1274C133.751 54.1215 132.447 53.7483 131.354 53.0079C130.266 52.2674 129.429 51.1949 128.841 49.7904C128.26 48.3859 127.972 46.6963 127.977 44.7218C127.977 42.7531 128.268 41.0753 128.85 39.6884C129.438 38.3015 130.275 37.2466 131.362 36.5238C132.455 35.7951 133.757 35.4307 135.267 35.4307C136.778 35.4307 138.077 35.7951 139.164 36.5238C140.257 37.2525 141.097 38.3103 141.685 39.6972C142.272 41.0782 142.563 42.7531 142.558 44.7218C142.558 46.7022 142.264 48.3947 141.676 49.7992C141.094 51.2037 140.26 52.2762 139.173 53.0167C138.085 53.7572 136.784 54.1274 135.267 54.1274ZM135.267 50.9628C136.302 50.9628 137.127 50.4427 137.745 49.4025C138.362 48.3624 138.667 46.8021 138.661 44.7218C138.661 43.3525 138.52 42.2124 138.238 41.3015C137.962 40.3907 137.568 39.706 137.057 39.2476C136.552 38.7893 135.955 38.5601 135.267 38.5601C134.239 38.5601 133.416 39.0743 132.799 40.1027C132.182 41.1311 131.871 42.6708 131.865 44.7218C131.865 46.1087 132.003 47.2664 132.279 48.1949C132.561 49.1175 132.958 49.811 133.469 50.2752C133.98 50.7336 134.58 50.9628 135.267 50.9628Z" fill="#B6F20B"/>
<path opacity="0.03" d="M8 110.8C8 107.044 11.0329 104 14.7742 104H71.2258C74.9671 104 78 107.044 78 110.8V165.2C78 168.956 74.9671 172 71.2258 172H14.7742C11.0329 172 8 168.956 8 165.2V110.8Z" fill="#B6F20B"/>
<path opacity="0.03" d="M6 109.2C6 105.224 9.20622 102 13.1613 102H72.8387C76.7938 102 80 105.224 80 109.2V166.8C80 170.776 76.7938 174 72.8387 174H13.1613C9.20622 174 6 170.776 6 166.8V109.2Z" fill="#B6F20B"/>
<path opacity="0.03" d="M85 110.8C85 107.044 88.0329 104 91.7742 104H148.226C151.967 104 155 107.044 155 110.8V165.2C155 168.956 151.967 172 148.226 172H91.7742C88.0329 172 85 168.956 85 165.2V110.8Z" fill="#B6F20B"/>
<path opacity="0.03" d="M10 112.4C10 108.865 12.8596 106 16.3871 106H69.6129C73.1404 106 76 108.865 76 112.4V163.6C76 167.135 73.1404 170 69.6129 170H16.3871C12.8596 170 10 167.135 10 163.6V112.4Z" fill="#B6F20B"/>
<path opacity="0.03" d="M87 112.4C87 108.865 89.8596 106 93.3871 106H146.613C150.14 106 153 108.865 153 112.4V163.6C153 167.135 150.14 170 146.613 170H93.3871C89.8596 170 87 167.135 87 163.6V112.4Z" fill="#B6F20B"/>
<path opacity="0.03" d="M164 112.4C164 108.865 166.86 106 170.387 106H223.613C227.14 106 230 108.865 230 112.4V163.6C230 167.135 227.14 170 223.613 170H170.387C166.86 170 164 167.135 164 163.6V112.4Z" fill="#B6F20B"/>
<g filter="url(#filter1_i_1305_3771)">
<rect x="12" y="108" width="62" height="60" rx="10" fill="#191A1F"/>
<rect x="12" y="108" width="62" height="60" rx="10" fill="url(#paint0_linear_1305_3771)" fill-opacity="0.06"/>
</g>
<rect x="13" y="109" width="60" height="58" rx="9" stroke="black" stroke-width="2"/>
<path d="M40.8828 135.352V135.293C40.8828 133.994 41.8105 132.861 43.3828 132.861C44.7793 132.861 45.8242 133.74 45.8242 135.156C45.8242 136.367 45.043 137.295 44.291 138.154L39.3105 143.926V145H47.8066V143.506H41.6934V143.477L45.2871 139.258C46.5859 137.744 47.5527 136.65 47.5527 135.039C47.5527 132.939 45.9219 131.387 43.4316 131.387C40.7266 131.387 39.2227 133.242 39.2227 135.293V135.352H40.8828Z" fill="white"/>
<g filter="url(#filter2_i_1305_3771)">
<rect x="89" y="108" width="62" height="60" rx="10" fill="#191A1F"/>
<rect x="89" y="108" width="62" height="60" rx="10" fill="url(#paint1_linear_1305_3771)" fill-opacity="0.06"/>
</g>
<rect x="90" y="109" width="60" height="58" rx="9" stroke="black" stroke-width="2"/>
<path opacity="0.9" d="M115.303 138.867C115.303 142.783 116.963 145.283 120 145.283C123.057 145.283 124.688 142.764 124.688 138.867V137.832C124.688 133.896 123.047 131.387 120.01 131.387C116.973 131.387 115.303 133.906 115.303 137.832V138.867ZM116.992 137.842C116.992 134.688 118.135 132.881 120 132.881C121.855 132.881 122.998 134.688 122.998 137.842V138.848C122.998 142.002 121.855 143.789 120 143.789C118.135 143.789 116.992 142.002 116.992 138.848V137.842Z" fill="white"/>
<g filter="url(#filter3_i_1305_3771)">
<rect x="166" y="108" width="62" height="60" rx="10" fill="#191A1F"/>
<rect x="166" y="108" width="62" height="60" rx="10" fill="url(#paint2_linear_1305_3771)" fill-opacity="0.06"/>
</g>
<rect x="167" y="109" width="60" height="58" rx="9" stroke="black" stroke-width="2"/>
<path opacity="0.9" d="M192.303 138.867C192.303 142.783 193.963 145.283 197 145.283C200.057 145.283 201.688 142.764 201.688 138.867V137.832C201.688 133.896 200.047 131.387 197.01 131.387C193.973 131.387 192.303 133.906 192.303 137.832V138.867ZM193.992 137.842C193.992 134.688 195.135 132.881 197 132.881C198.855 132.881 199.998 134.688 199.998 137.842V138.848C199.998 142.002 198.855 143.789 197 143.789C195.135 143.789 193.992 142.002 193.992 138.848V137.842Z" fill="white"/>
<rect x="149" y="24" width="3" height="40" fill="#B6F20B"/>
<rect x="96" y="24" width="56" height="40" fill="url(#paint3_linear_1305_3771)"/>
<defs>
<filter id="filter0_d_1305_3771" x="0.226929" y="0.226807" width="237.546" height="90.5464" filterUnits="userSpaceOnUse" color-interpolation-filters="sRGB">
<feFlood flood-opacity="0" result="BackgroundImageFix"/>
<feColorMatrix in="SourceAlpha" type="matrix" values="0 0 0 0 0 0 0 0 0 0 0 0 0 0 0 0 0 0 127 0" result="hardAlpha"/>
<feOffset/>
<feGaussianBlur stdDeviation="5"/>
<feComposite in2="hardAlpha" operator="out"/>
<feColorMatrix type="matrix" values="0 0 0 0 0.713726 0 0 0 0 0.94902 0 0 0 0 0.0431373 0 0 0 0.16 0"/>
<feBlend mode="normal" in2="BackgroundImageFix" result="effect1_dropShadow_1305_3771"/>
<feBlend mode="normal" in="SourceGraphic" in2="effect1_dropShadow_1305_3771" result="shape"/>
</filter>
<filter id="filter1_i_1305_3771" x="12" y="108" width="62" height="61" filterUnits="userSpaceOnUse" color-interpolation-filters="sRGB">
<feFlood flood-opacity="0" result="BackgroundImageFix"/>
<feBlend mode="normal" in="SourceGraphic" in2="BackgroundImageFix" result="shape"/>
<feColorMatrix in="SourceAlpha" type="matrix" values="0 0 0 0 0 0 0 0 0 0 0 0 0 0 0 0 0 0 127 0" result="hardAlpha"/>
<feOffset dy="3"/>
<feGaussianBlur stdDeviation="0.5"/>
<feComposite in2="hardAlpha" operator="arithmetic" k2="-1" k3="1"/>
<feColorMatrix type="matrix" values="0 0 0 0 1 0 0 0 0 1 0 0 0 0 1 0 0 0 0.15 0"/>
<feBlend mode="normal" in2="shape" result="effect1_innerShadow_1305_3771"/>
</filter>
<filter id="filter2_i_1305_3771" x="89" y="108" width="62" height="61" filterUnits="userSpaceOnUse" color-interpolation-filters="sRGB">
<feFlood flood-opacity="0" result="BackgroundImageFix"/>
<feBlend mode="normal" in="SourceGraphic" in2="BackgroundImageFix" result="shape"/>
<feColorMatrix in="SourceAlpha" type="matrix" values="0 0 0 0 0 0 0 0 0 0 0 0 0 0 0 0 0 0 127 0" result="hardAlpha"/>
<feOffset dy="3"/>
<feGaussianBlur stdDeviation="0.5"/>
<feComposite in2="hardAlpha" operator="arithmetic" k2="-1" k3="1"/>
<feColorMatrix type="matrix" values="0 0 0 0 1 0 0 0 0 1 0 0 0 0 1 0 0 0 0.15 0"/>
<feBlend mode="normal" in2="shape" result="effect1_innerShadow_1305_3771"/>
</filter>
<filter id="filter3_i_1305_3771" x="166" y="108" width="62" height="61" filterUnits="userSpaceOnUse" color-interpolation-filters="sRGB">
<feFlood flood-opacity="0" result="BackgroundImageFix"/>
<feBlend mode="normal" in="SourceGraphic" in2="BackgroundImageFix" result="shape"/>
<feColorMatrix in="SourceAlpha" type="matrix" values="0 0 0 0 0 0 0 0 0 0 0 0 0 0 0 0 0 0 127 0" result="hardAlpha"/>
<feOffset dy="3"/>
<feGaussianBlur stdDeviation="0.5"/>
<feComposite in2="hardAlpha" operator="arithmetic" k2="-1" k3="1"/>
<feColorMatrix type="matrix" values="0 0 0 0 1 0 0 0 0 1 0 0 0 0 1 0 0 0 0.15 0"/>
<feBlend mode="normal" in2="shape" result="effect1_innerShadow_1305_3771"/>
</filter>
<linearGradient id="paint0_linear_1305_3771" x1="43" y1="108" x2="43" y2="168" gradientUnits="userSpaceOnUse">
<stop stop-color="white" stop-opacity="0"/>
<stop offset="1" stop-color="white"/>
</linearGradient>
<linearGradient id="paint1_linear_1305_3771" x1="120" y1="108" x2="120" y2="168" gradientUnits="userSpaceOnUse">
<stop stop-color="white" stop-opacity="0"/>
<stop offset="1" stop-color="white"/>
</linearGradient>
<linearGradient id="paint2_linear_1305_3771" x1="197" y1="108" x2="197" y2="168" gradientUnits="userSpaceOnUse">
<stop stop-color="white" stop-opacity="0"/>
<stop offset="1" stop-color="white"/>
</linearGradient>
<linearGradient id="paint3_linear_1305_3771" x1="152" y1="40" x2="96" y2="40" gradientUnits="userSpaceOnUse">
<stop stop-color="#B6F20B" stop-opacity="0.08"/>
<stop offset="1" stop-color="#B6F20B" stop-opacity="0"/>
</linearGradient>
</defs>
</svg>
